<svg width="182" height="85" viewBox="0 0 182 85" fill="none" xmlns="http://www.w3.org/2000/svg">
<rect width="182" height="85" fill="#1CAFA6"/>
<path d="M56.555 34.765C56.555 33.745 56.79 32.83 57.26 32.02C57.74 31.21 58.385 30.58 59.195 30.13C60.015 29.67 60.91 29.44 61.88 29.44C62.99 29.44 63.975 29.715 64.835 30.265C65.705 30.805 66.335 31.575 66.725 32.575H64.67C64.4 32.025 64.025 31.615 63.545 31.345C63.065 31.075 62.51 30.94 61.88 30.94C61.19 30.94 60.575 31.095 60.035 31.405C59.495 31.715 59.07 32.16 58.76 32.74C58.46 33.32 58.31 33.995 58.31 34.765C58.31 35.535 58.46 36.21 58.76 36.79C59.07 37.37 59.495 37.82 60.035 38.14C60.575 38.45 61.19 38.605 61.88 38.605C62.51 38.605 63.065 38.47 63.545 38.2C64.025 37.93 64.4 37.52 64.67 36.97H66.725C66.335 37.97 65.705 38.74 64.835 39.28C63.975 39.82 62.99 40.09 61.88 40.09C60.9 40.09 60.005 39.865 59.195 39.415C58.385 38.955 57.74 38.32 57.26 37.51C56.79 36.7 56.555 35.785 56.555 34.765ZM68.1566 35.83C68.1566 35 68.3266 34.265 68.6666 33.625C69.0166 32.985 69.4866 32.49 70.0766 32.14C70.6766 31.78 71.3366 31.6 72.0566 31.6C72.7066 31.6 73.2716 31.73 73.7516 31.99C74.2416 32.24 74.6316 32.555 74.9216 32.935V31.735H76.6466V40H74.9216V38.77C74.6316 39.16 74.2366 39.485 73.7366 39.745C73.2366 40.005 72.6666 40.135 72.0266 40.135C71.3166 40.135 70.6666 39.955 70.0766 39.595C69.4866 39.225 69.0166 38.715 68.6666 38.065C68.3266 37.405 68.1566 36.66 68.1566 35.83ZM74.9216 35.86C74.9216 35.29 74.8016 34.795 74.5616 34.375C74.3316 33.955 74.0266 33.635 73.6466 33.415C73.2666 33.195 72.8566 33.085 72.4166 33.085C71.9766 33.085 71.5666 33.195 71.1866 33.415C70.8066 33.625 70.4966 33.94 70.2566 34.36C70.0266 34.77 69.9116 35.26 69.9116 35.83C69.9116 36.4 70.0266 36.9 70.2566 37.33C70.4966 37.76 70.8066 38.09 71.1866 38.32C71.5766 38.54 71.9866 38.65 72.4166 38.65C72.8566 38.65 73.2666 38.54 73.6466 38.32C74.0266 38.1 74.3316 37.78 74.5616 37.36C74.8016 36.93 74.9216 36.43 74.9216 35.86ZM80.6026 28.9V40H78.8926V28.9H80.6026ZM86.4327 40.135C85.6527 40.135 84.9477 39.96 84.3177 39.61C83.6877 39.25 83.1927 38.75 82.8327 38.11C82.4727 37.46 82.2927 36.71 82.2927 35.86C82.2927 35.02 82.4777 34.275 82.8477 33.625C83.2177 32.975 83.7227 32.475 84.3627 32.125C85.0027 31.775 85.7177 31.6 86.5077 31.6C87.2977 31.6 88.0127 31.775 88.6527 32.125C89.2927 32.475 89.7977 32.975 90.1677 33.625C90.5377 34.275 90.7227 35.02 90.7227 35.86C90.7227 36.7 90.5327 37.445 90.1527 38.095C89.7727 38.745 89.2527 39.25 88.5927 39.61C87.9427 39.96 87.2227 40.135 86.4327 40.135ZM86.4327 38.65C86.8727 38.65 87.2827 38.545 87.6627 38.335C88.0527 38.125 88.3677 37.81 88.6077 37.39C88.8477 36.97 88.9677 36.46 88.9677 35.86C88.9677 35.26 88.8527 34.755 88.6227 34.345C88.3927 33.925 88.0877 33.61 87.7077 33.4C87.3277 33.19 86.9177 33.085 86.4777 33.085C86.0377 33.085 85.6277 33.19 85.2477 33.4C84.8777 33.61 84.5827 33.925 84.3627 34.345C84.1427 34.755 84.0327 35.26 84.0327 35.86C84.0327 36.75 84.2577 37.44 84.7077 37.93C85.1677 38.41 85.7427 38.65 86.4327 38.65ZM94.1231 32.935C94.3731 32.515 94.7031 32.19 95.1131 31.96C95.5331 31.72 96.0281 31.6 96.5981 31.6V33.37H96.1631C95.4931 33.37 94.9831 33.54 94.6331 33.88C94.2931 34.22 94.1231 34.81 94.1231 35.65V40H92.4131V31.735H94.1231V32.935ZM99.0399 30.64C98.7299 30.64 98.4699 30.535 98.2599 30.325C98.0499 30.115 97.9449 29.855 97.9449 29.545C97.9449 29.235 98.0499 28.975 98.2599 28.765C98.4699 28.555 98.7299 28.45 99.0399 28.45C99.3399 28.45 99.5949 28.555 99.8049 28.765C100.015 28.975 100.12 29.235 100.12 29.545C100.12 29.855 100.015 30.115 99.8049 30.325C99.5949 30.535 99.3399 30.64 99.0399 30.64ZM99.8799 31.735V40H98.1699V31.735H99.8799ZM109.7 35.665C109.7 35.975 109.68 36.255 109.64 36.505H103.325C103.375 37.165 103.62 37.695 104.06 38.095C104.5 38.495 105.04 38.695 105.68 38.695C106.6 38.695 107.25 38.31 107.63 37.54H109.475C109.225 38.3 108.77 38.925 108.11 39.415C107.46 39.895 106.65 40.135 105.68 40.135C104.89 40.135 104.18 39.96 103.55 39.61C102.93 39.25 102.44 38.75 102.08 38.11C101.73 37.46 101.555 36.71 101.555 35.86C101.555 35.01 101.725 34.265 102.065 33.625C102.415 32.975 102.9 32.475 103.52 32.125C104.15 31.775 104.87 31.6 105.68 31.6C106.46 31.6 107.155 31.77 107.765 32.11C108.375 32.45 108.85 32.93 109.19 33.55C109.53 34.16 109.7 34.865 109.7 35.665ZM107.915 35.125C107.905 34.495 107.68 33.99 107.24 33.61C106.8 33.23 106.255 33.04 105.605 33.04C105.015 33.04 104.51 33.23 104.09 33.61C103.67 33.98 103.42 34.485 103.34 35.125H107.915ZM114.383 40.135C113.733 40.135 113.148 40.02 112.628 39.79C112.118 39.55 111.713 39.23 111.413 38.83C111.113 38.42 110.953 37.965 110.933 37.465H112.703C112.733 37.815 112.898 38.11 113.198 38.35C113.508 38.58 113.893 38.695 114.353 38.695C114.833 38.695 115.203 38.605 115.463 38.425C115.733 38.235 115.868 37.995 115.868 37.705C115.868 37.395 115.718 37.165 115.418 37.015C115.128 36.865 114.663 36.7 114.023 36.52C113.403 36.35 112.898 36.185 112.508 36.025C112.118 35.865 111.778 35.62 111.488 35.29C111.208 34.96 111.068 34.525 111.068 33.985C111.068 33.545 111.198 33.145 111.458 32.785C111.718 32.415 112.088 32.125 112.568 31.915C113.058 31.705 113.618 31.6 114.248 31.6C115.188 31.6 115.943 31.84 116.513 32.32C117.093 32.79 117.403 33.435 117.443 34.255H115.733C115.703 33.885 115.553 33.59 115.283 33.37C115.013 33.15 114.648 33.04 114.188 33.04C113.738 33.04 113.393 33.125 113.153 33.295C112.913 33.465 112.793 33.69 112.793 33.97C112.793 34.19 112.873 34.375 113.033 34.525C113.193 34.675 113.388 34.795 113.618 34.885C113.848 34.965 114.188 35.07 114.638 35.2C115.238 35.36 115.728 35.525 116.108 35.695C116.498 35.855 116.833 36.095 117.113 36.415C117.393 36.735 117.538 37.16 117.548 37.69C117.548 38.16 117.418 38.58 117.158 38.95C116.898 39.32 116.528 39.61 116.048 39.82C115.578 40.03 115.023 40.135 114.383 40.135ZM125.002 32.965C125.292 32.565 125.687 32.24 126.187 31.99C126.697 31.73 127.262 31.6 127.882 31.6C128.612 31.6 129.272 31.775 129.862 32.125C130.452 32.475 130.917 32.975 131.257 33.625C131.597 34.265 131.767 35 131.767 35.83C131.767 36.66 131.597 37.405 131.257 38.065C130.917 38.715 130.447 39.225 129.847 39.595C129.257 39.955 128.602 40.135 127.882 40.135C127.242 40.135 126.672 40.01 126.172 39.76C125.682 39.51 125.292 39.19 125.002 38.8V40H123.292V28.9H125.002V32.965ZM130.027 35.83C130.027 35.26 129.907 34.77 129.667 34.36C129.437 33.94 129.127 33.625 128.737 33.415C128.357 33.195 127.947 33.085 127.507 33.085C127.077 33.085 126.667 33.195 126.277 33.415C125.897 33.635 125.587 33.955 125.347 34.375C125.117 34.795 125.002 35.29 125.002 35.86C125.002 36.43 125.117 36.93 125.347 37.36C125.587 37.78 125.897 38.1 126.277 38.32C126.667 38.54 127.077 38.65 127.507 38.65C127.947 38.65 128.357 38.54 128.737 38.32C129.127 38.09 129.437 37.76 129.667 37.33C129.907 36.9 130.027 36.4 130.027 35.83ZM140.943 31.735V40H139.233V39.025C138.963 39.365 138.608 39.635 138.168 39.835C137.738 40.025 137.278 40.12 136.788 40.12C136.138 40.12 135.553 39.985 135.033 39.715C134.523 39.445 134.118 39.045 133.818 38.515C133.528 37.985 133.383 37.345 133.383 36.595V31.735H135.078V36.34C135.078 37.08 135.263 37.65 135.633 38.05C136.003 38.44 136.508 38.635 137.148 38.635C137.788 38.635 138.293 38.44 138.663 38.05C139.043 37.65 139.233 37.08 139.233 36.34V31.735H140.943ZM144.909 32.935C145.159 32.515 145.489 32.19 145.899 31.96C146.319 31.72 146.814 31.6 147.384 31.6V33.37H146.949C146.279 33.37 145.769 33.54 145.419 33.88C145.079 34.22 144.909 34.81 144.909 35.65V40H143.199V31.735H144.909V32.935ZM153.126 31.6C153.776 31.6 154.356 31.735 154.866 32.005C155.386 32.275 155.791 32.675 156.081 33.205C156.371 33.735 156.516 34.375 156.516 35.125V40H154.821V35.38C154.821 34.64 154.636 34.075 154.266 33.685C153.896 33.285 153.391 33.085 152.751 33.085C152.111 33.085 151.601 33.285 151.221 33.685C150.851 34.075 150.666 34.64 150.666 35.38V40H148.956V31.735H150.666V32.68C150.946 32.34 151.301 32.075 151.731 31.885C152.171 31.695 152.636 31.6 153.126 31.6ZM166.272 35.665C166.272 35.975 166.252 36.255 166.212 36.505H159.897C159.947 37.165 160.192 37.695 160.632 38.095C161.072 38.495 161.612 38.695 162.252 38.695C163.172 38.695 163.822 38.31 164.202 37.54H166.047C165.797 38.3 165.342 38.925 164.682 39.415C164.032 39.895 163.222 40.135 162.252 40.135C161.462 40.135 160.752 39.96 160.122 39.61C159.502 39.25 159.012 38.75 158.652 38.11C158.302 37.46 158.127 36.71 158.127 35.86C158.127 35.01 158.297 34.265 158.637 33.625C158.987 32.975 159.472 32.475 160.092 32.125C160.722 31.775 161.442 31.6 162.252 31.6C163.032 31.6 163.727 31.77 164.337 32.11C164.947 32.45 165.422 32.93 165.762 33.55C166.102 34.16 166.272 34.865 166.272 35.665ZM164.487 35.125C164.477 34.495 164.252 33.99 163.812 33.61C163.372 33.23 162.827 33.04 162.177 33.04C161.587 33.04 161.082 33.23 160.662 33.61C160.242 33.98 159.992 34.485 159.912 35.125H164.487ZM167.385 35.83C167.385 35 167.555 34.265 167.895 33.625C168.245 32.985 168.715 32.49 169.305 32.14C169.905 31.78 170.57 31.6 171.3 31.6C171.84 31.6 172.37 31.72 172.89 31.96C173.42 32.19 173.84 32.5 174.15 32.89V28.9H175.875V40H174.15V38.755C173.87 39.155 173.48 39.485 172.98 39.745C172.49 40.005 171.925 40.135 171.285 40.135C170.565 40.135 169.905 39.955 169.305 39.595C168.715 39.225 168.245 38.715 167.895 38.065C167.555 37.405 167.385 36.66 167.385 35.83ZM174.15 35.86C174.15 35.29 174.03 34.795 173.79 34.375C173.56 33.955 173.255 33.635 172.875 33.415C172.495 33.195 172.085 33.085 171.645 33.085C171.205 33.085 170.795 33.195 170.415 33.415C170.035 33.625 169.725 33.94 169.485 34.36C169.255 34.77 169.14 35.26 169.14 35.83C169.14 36.4 169.255 36.9 169.485 37.33C169.725 37.76 170.035 38.09 170.415 38.32C170.805 38.54 171.215 38.65 171.645 38.65C172.085 38.65 172.495 38.54 172.875 38.32C173.255 38.1 173.56 37.78 173.79 37.36C174.03 36.93 174.15 36.43 174.15 35.86Z" fill="#1E1E1E"/>
<path d="M75.94 66.84C77.22 65.7733 78.24 64.8867 79 64.18C79.76 63.46 80.3933 62.7133 80.9 61.94C81.4067 61.1667 81.66 60.4067 81.66 59.66C81.66 58.98 81.5 58.4467 81.18 58.06C80.86 57.6733 80.3667 57.48 79.7 57.48C79.0333 57.48 78.52 57.7067 78.16 58.16C77.8 58.6 77.6133 59.2067 77.6 59.98H74.88C74.9333 58.38 75.4067 57.1667 76.3 56.34C77.2067 55.5133 78.3533 55.1 79.74 55.1C81.26 55.1 82.4267 55.5067 83.24 56.32C84.0533 57.12 84.46 58.18 84.46 59.5C84.46 60.54 84.18 61.5333 83.62 62.48C83.06 63.4267 82.42 64.2533 81.7 64.96C80.98 65.6533 80.04 66.4933 78.88 67.48H84.78V69.8H74.9V67.72L75.94 66.84ZM86.5444 62.52C86.5444 60.2133 86.9577 58.4067 87.7844 57.1C88.6244 55.7933 90.011 55.14 91.9444 55.14C93.8777 55.14 95.2577 55.7933 96.0844 57.1C96.9244 58.4067 97.3444 60.2133 97.3444 62.52C97.3444 64.84 96.9244 66.66 96.0844 67.98C95.2577 69.3 93.8777 69.96 91.9444 69.96C90.011 69.96 88.6244 69.3 87.7844 67.98C86.9577 66.66 86.5444 64.84 86.5444 62.52ZM94.5844 62.52C94.5844 61.5333 94.5177 60.7067 94.3844 60.04C94.2644 59.36 94.011 58.8067 93.6244 58.38C93.251 57.9533 92.691 57.74 91.9444 57.74C91.1977 57.74 90.631 57.9533 90.2444 58.38C89.871 58.8067 89.6177 59.36 89.4844 60.04C89.3644 60.7067 89.3044 61.5333 89.3044 62.52C89.3044 63.5333 89.3644 64.3867 89.4844 65.08C89.6044 65.76 89.8577 66.3133 90.2444 66.74C90.631 67.1533 91.1977 67.36 91.9444 67.36C92.691 67.36 93.2577 67.1533 93.6444 66.74C94.031 66.3133 94.2844 65.76 94.4044 65.08C94.5244 64.3867 94.5844 63.5333 94.5844 62.52ZM99.4741 62.52C99.4741 60.2133 99.8874 58.4067 100.714 57.1C101.554 55.7933 102.941 55.14 104.874 55.14C106.807 55.14 108.187 55.7933 109.014 57.1C109.854 58.4067 110.274 60.2133 110.274 62.52C110.274 64.84 109.854 66.66 109.014 67.98C108.187 69.3 106.807 69.96 104.874 69.96C102.941 69.96 101.554 69.3 100.714 67.98C99.8874 66.66 99.4741 64.84 99.4741 62.52ZM107.514 62.52C107.514 61.5333 107.447 60.7067 107.314 60.04C107.194 59.36 106.941 58.8067 106.554 58.38C106.181 57.9533 105.621 57.74 104.874 57.74C104.127 57.74 103.561 57.9533 103.174 58.38C102.801 58.8067 102.547 59.36 102.414 60.04C102.294 60.7067 102.234 61.5333 102.234 62.52C102.234 63.5333 102.294 64.3867 102.414 65.08C102.534 65.76 102.787 66.3133 103.174 66.74C103.561 67.1533 104.127 67.36 104.874 67.36C105.621 67.36 106.187 67.1533 106.574 66.74C106.961 66.3133 107.214 65.76 107.334 65.08C107.454 64.3867 107.514 63.5333 107.514 62.52ZM124.049 70L120.289 65.28V70H117.489V55.2H120.289V63.62L124.009 58.92H127.649L122.769 64.48L127.689 70H124.049ZM128.449 64.46C128.449 63.3133 128.682 62.3133 129.149 61.46C129.616 60.5933 130.262 59.9267 131.089 59.46C131.916 58.98 132.862 58.74 133.929 58.74C135.302 58.74 136.436 59.0867 137.329 59.78C138.236 60.46 138.842 61.42 139.149 62.66H136.129C135.969 62.18 135.696 61.8067 135.309 61.54C134.936 61.26 134.469 61.12 133.909 61.12C133.109 61.12 132.476 61.4133 132.009 62C131.542 62.5733 131.309 63.3933 131.309 64.46C131.309 65.5133 131.542 66.3333 132.009 66.92C132.476 67.4933 133.109 67.78 133.909 67.78C135.042 67.78 135.782 67.2733 136.129 66.26H139.149C138.842 67.46 138.236 68.4133 137.329 69.12C136.422 69.8267 135.289 70.18 133.929 70.18C132.862 70.18 131.916 69.9467 131.089 69.48C130.262 69 129.616 68.3333 129.149 67.48C128.682 66.6133 128.449 65.6067 128.449 64.46ZM140.48 64.42C140.48 63.3 140.7 62.3067 141.14 61.44C141.594 60.5733 142.2 59.9067 142.96 59.44C143.734 58.9733 144.594 58.74 145.54 58.74C146.367 58.74 147.087 58.9067 147.7 59.24C148.327 59.5733 148.827 59.9933 149.2 60.5V58.92H152.02V70H149.2V68.38C148.84 68.9 148.34 69.3333 147.7 69.68C147.074 70.0133 146.347 70.18 145.52 70.18C144.587 70.18 143.734 69.94 142.96 69.46C142.2 68.98 141.594 68.3067 141.14 67.44C140.7 66.56 140.48 65.5533 140.48 64.42ZM149.2 64.46C149.2 63.78 149.067 63.2 148.8 62.72C148.534 62.2267 148.174 61.8533 147.72 61.6C147.267 61.3333 146.78 61.2 146.26 61.2C145.74 61.2 145.26 61.3267 144.82 61.58C144.38 61.8333 144.02 62.2067 143.74 62.7C143.474 63.18 143.34 63.7533 143.34 64.42C143.34 65.0867 143.474 65.6733 143.74 66.18C144.02 66.6733 144.38 67.0533 144.82 67.32C145.274 67.5867 145.754 67.72 146.26 67.72C146.78 67.72 147.267 67.5933 147.72 67.34C148.174 67.0733 148.534 66.7 148.8 66.22C149.067 65.7267 149.2 65.14 149.2 64.46ZM157.555 55.2V70H154.755V55.2H157.555Z" fill="#1E1E1E"/>
<rect x="10" y="7" width="8" height="71" rx="4" fill="url(#paint0_linear_5_42)"/>
<rect x="20" y="18" width="8" height="60" rx="4" fill="url(#paint1_linear_5_42)"/>
<rect x="30" y="31" width="8" height="47" rx="4" fill="url(#paint2_linear_5_42)"/>
<rect x="40" y="38" width="8" height="40" rx="4" fill="url(#paint3_linear_5_42)"/>
<defs>
<linearGradient id="paint0_linear_5_42" x1="14" y1="20.5" x2="11.627" y2="100.433" gradientUnits="userSpaceOnUse">
<stop stop-color="white"/>
<stop offset="1" stop-color="#FF0000"/>
</linearGradient>
<linearGradient id="paint1_linear_5_42" x1="24" y1="29.4085" x2="22.3049" y2="96.9742" gradientUnits="userSpaceOnUse">
<stop stop-color="white"/>
<stop offset="1" stop-color="#FF0000"/>
</linearGradient>
<linearGradient id="paint2_linear_5_42" x1="34" y1="39.9366" x2="32.9596" y2="92.876" gradientUnits="userSpaceOnUse">
<stop stop-color="white"/>
<stop offset="1" stop-color="#FF0000"/>
</linearGradient>
<linearGradient id="paint3_linear_5_42" x1="44" y1="45.6056" x2="43.2464" y2="90.6652" gradientUnits="userSpaceOnUse">
<stop stop-color="white"/>
<stop offset="1" stop-color="#FF0000"/>
</linearGradient>
</defs>
</svg>
