<svg width="148" height="70" viewBox="0 0 148 70" fill="none" xmlns="http://www.w3.org/2000/svg">
<path d="M0 5C0 2.23858 2.23858 0 5 0L143 0C145.761 0 148 2.23858 148 5V29.1209C148 51.2123 130.091 69.1209 108 69.1209H5C2.23858 69.1209 0 66.8823 0 64.1209L0 5Z" fill="#1CAFA6"/>
<path d="M24.32 31.288C23.936 30.584 23.408 30.048 22.736 29.68C22.064 29.312 21.28 29.128 20.384 29.128C19.392 29.128 18.512 29.352 17.744 29.8C16.976 30.248 16.376 30.888 15.944 31.72C15.512 32.552 15.296 33.512 15.296 34.6C15.296 35.72 15.512 36.696 15.944 37.528C16.392 38.36 17.008 39 17.792 39.448C18.576 39.896 19.488 40.12 20.528 40.12C21.808 40.12 22.856 39.784 23.672 39.112C24.488 38.424 25.024 37.472 25.28 36.256H19.52V33.688H28.592V36.616C28.368 37.784 27.888 38.864 27.152 39.856C26.416 40.848 25.464 41.648 24.296 42.256C23.144 42.848 21.848 43.144 20.408 43.144C18.792 43.144 17.328 42.784 16.016 42.064C14.72 41.328 13.696 40.312 12.944 39.016C12.208 37.72 11.84 36.248 11.84 34.6C11.84 32.952 12.208 31.48 12.944 30.184C13.696 28.872 14.72 27.856 16.016 27.136C17.328 26.4 18.784 26.032 20.384 26.032C22.272 26.032 23.912 26.496 25.304 27.424C26.696 28.336 27.656 29.624 28.184 31.288H24.32ZM34.4379 28.96V33.16H40.0779V35.824H34.4379V40.264H40.7979V43H31.0779V26.224H40.7979V28.96H34.4379ZM55.2513 26.248V28.96H50.7873V43H47.4273V28.96H42.9633V26.248H55.2513ZM69.2056 43.168C68.0376 43.168 66.9816 42.968 66.0376 42.568C65.1096 42.168 64.3736 41.592 63.8296 40.84C63.2856 40.088 63.0056 39.2 62.9896 38.176H66.5896C66.6376 38.864 66.8776 39.408 67.3096 39.808C67.7576 40.208 68.3656 40.408 69.1336 40.408C69.9176 40.408 70.5336 40.224 70.9816 39.856C71.4296 39.472 71.6536 38.976 71.6536 38.368C71.6536 37.872 71.5016 37.464 71.1976 37.144C70.8936 36.824 70.5096 36.576 70.0456 36.4C69.5976 36.208 68.9736 36 68.1736 35.776C67.0856 35.456 66.1976 35.144 65.5096 34.84C64.8376 34.52 64.2536 34.048 63.7576 33.424C63.2776 32.784 63.0376 31.936 63.0376 30.88C63.0376 29.888 63.2856 29.024 63.7816 28.288C64.2776 27.552 64.9736 26.992 65.8696 26.608C66.7656 26.208 67.7896 26.008 68.9416 26.008C70.6696 26.008 72.0696 26.432 73.1416 27.28C74.2296 28.112 74.8296 29.28 74.9416 30.784H71.2456C71.2136 30.208 70.9656 29.736 70.5016 29.368C70.0536 28.984 69.4536 28.792 68.7016 28.792C68.0456 28.792 67.5176 28.96 67.1176 29.296C66.7336 29.632 66.5416 30.12 66.5416 30.76C66.5416 31.208 66.6856 31.584 66.9736 31.888C67.2776 32.176 67.6456 32.416 68.0776 32.608C68.5256 32.784 69.1496 32.992 69.9496 33.232C71.0376 33.552 71.9256 33.872 72.6136 34.192C73.3016 34.512 73.8936 34.992 74.3896 35.632C74.8856 36.272 75.1336 37.112 75.1336 38.152C75.1336 39.048 74.9016 39.88 74.4376 40.648C73.9736 41.416 73.2936 42.032 72.3976 42.496C71.5016 42.944 70.4376 43.168 69.2056 43.168ZM89.4466 26.248V28.96H84.9826V43H81.6226V28.96H77.1586V26.248H89.4466ZM102.17 39.808H95.4982L94.3942 43H90.8662L96.8902 26.224H100.802L106.826 43H103.274L102.17 39.808ZM101.258 37.12L98.8342 30.112L96.4102 37.12H101.258ZM117.718 43L114.022 36.472H112.438V43H109.078V26.248H115.366C116.662 26.248 117.766 26.48 118.678 26.944C119.59 27.392 120.27 28.008 120.718 28.792C121.182 29.56 121.414 30.424 121.414 31.384C121.414 32.488 121.094 33.488 120.454 34.384C119.814 35.264 118.862 35.872 117.598 36.208L121.606 43H117.718ZM112.438 33.952H115.246C116.158 33.952 116.838 33.736 117.286 33.304C117.734 32.856 117.958 32.24 117.958 31.456C117.958 30.688 117.734 30.096 117.286 29.68C116.838 29.248 116.158 29.032 115.246 29.032H112.438V33.952ZM135.853 26.248V28.96H131.389V43H128.029V28.96H123.565V26.248H135.853Z" fill="white"/>
</svg>
